<svg version="1.1" xmlns="http://www.w3.org/2000/svg" xmlns:xlink="http://www.w3.org/1999/xlink" width="32px" height="32px" viewBox="0,0,256,256"><g fill="#0097ff" fill-rule="nonzero" stroke="none" stroke-width="1" stroke-linecap="butt" stroke-linejoin="miter" stroke-miterlimit="10" stroke-dasharray="" stroke-dashoffset="0" font-family="none" font-weight="none" font-size="none" text-anchor="none" style="mix-blend-mode: normal"><g><g><g transform="scale(8,8)"><g id="Layer_2"><path d="M31,16c0,8.28427 -6.71573,15 -15,15c-8.28427,0 -15,-6.71573 -15,-15c0,-8.28427 6.71573,-15 15,-15c8.28427,0 15,6.71573 15,15zM3,16c0,7.1797 5.8203,13 13,13c7.1797,0 13,-5.8203 13,-13c0,-7.1797 -5.8203,-13 -13,-13c-7.1797,0 -13,5.8203 -13,13z"></path><path d="M19.87,10.41l-5.58,5.59l5.58,5.59c0.38772,0.39004 0.38772,1.01996 0,1.41v0c-0.39004,0.38772 -1.01996,0.38772 -1.41,0l-6.36,-6.36c-0.35078,-0.35457 -0.35078,-0.92543 0,-1.28l6.36,-6.36c0.39004,-0.38772 1.01996,-0.38772 1.41,0v0c0.38772,0.39004 0.38772,1.01996 0,1.41z"></path></g></g></g></g></g></svg>